<svg xmlns="http://www.w3.org/2000/svg" viewBox="0 0 64 64"><defs><style>.cls-1{fill:#8bc4ff;}.cls-2{fill:#d1e7ff;}.cls-3{fill:#2e58ff;}</style></defs><title>Calendar</title><g id="Calendar"><path class="cls-1" d="M6,8H58a4,4,0,0,1,4,4v8a0,0,0,0,1,0,0H2a0,0,0,0,1,0,0V12A4,4,0,0,1,6,8Z"/><path class="cls-2" d="M2,20H62a0,0,0,0,1,0,0V58a4,4,0,0,1-4,4H6a4,4,0,0,1-4-4V20A0,0,0,0,1,2,20Z"/><path class="cls-2" d="M16,14a4,4,0,0,1-4-4V6a4,4,0,0,1,8,0v4A4,4,0,0,1,16,14Z"/><path class="cls-2" d="M48,14a4,4,0,0,1-4-4V6a4,4,0,0,1,8,0v4A4,4,0,0,1,48,14Z"/><path class="cls-1" d="M54,49H18a8,8,0,0,1-8-8V37H42A12,12,0,0,1,54,49Z"/><polygon class="cls-2" points="10 37 10 28 16 28 22 37 10 37"/><polygon class="cls-2" points="25 45 37 45 26 54 17 54 25 45"/><path class="cls-3" d="M58,6H54A6,6,0,0,0,42,6H22A6,6,0,0,0,10,6H6a6,6,0,0,0-6,6V58a6,6,0,0,0,6,6H58a6,6,0,0,0,6-6V12A6,6,0,0,0,58,6ZM46,6a2,2,0,0,1,4,0v4a2,2,0,0,1-4,0ZM14,6a2,2,0,0,1,4,0v4a2,2,0,0,1-4,0ZM60,58a2,2,0,0,1-2,2H6a2,2,0,0,1-2-2V22H60Zm0-40H4V12a2,2,0,0,1,2-2h4a6,6,0,0,0,12,0H42a6,6,0,0,0,12,0h4a2,2,0,0,1,2,2Z"/><path class="cls-3" d="M17,51,15.5,52.67A2,2,0,0,0,17,56h9c1,0,.79-.06,6.83-5H54a2,2,0,0,0,2-2A14,14,0,0,0,42,35H23.07l-5.41-8.11A2,2,0,0,0,16,26H10a2,2,0,0,0-2,2V41A10,10,0,0,0,17,51Zm8.26,1H21.45l4.45-5h5.5ZM51.8,47H37.72l.55-.45A2,2,0,0,0,37,43H25a2,2,0,0,0-1.5.67l-3,3.33H18a6,6,0,0,1-6-6V39H42A10,10,0,0,1,51.8,47ZM12,30h2.93l3.33,5H12Z"/></g></svg>